<svg width="14" height="14" viewBox="0 0 14 14" fill="none" xmlns="http://www.w3.org/2000/svg">
<path d="M12.8422 6.66134C12.8984 6.47384 12.9266 6.28009 12.9266 6.08322C12.9266 5.64103 12.7812 5.21603 12.5188 4.86915C12.575 4.68165 12.6031 4.4879 12.6031 4.29103C12.6031 3.84884 12.4578 3.42384 12.1953 3.07697C12.2516 2.88947 12.2797 2.69572 12.2797 2.49884C12.2797 1.69259 11.8 0.966029 11.0562 0.648841C10.9255 0.59248 10.7845 0.563753 10.6422 0.564466H1.25C0.973437 0.564466 0.75 0.787904 0.75 1.06447V6.75197C0.75 7.02853 0.973437 7.25197 1.25 7.25197H3.27031L4.61094 12.1082C4.82656 12.891 5.54531 13.4379 6.35781 13.4379C6.82188 13.4379 7.25469 13.2535 7.575 12.916C7.89531 12.5801 8.05937 12.1395 8.03594 11.6754L7.94219 9.75509H11.6906C11.8797 9.75509 12.0641 9.70509 12.2266 9.60978C12.8578 9.24259 13.25 8.57697 13.25 7.8754C13.25 7.43322 13.1047 7.00822 12.8422 6.66134ZM1.875 6.1254V1.6879H3.14062V6.1254H1.875ZM11.675 8.63165H6.7625L6.9125 11.7317C6.92188 11.9176 6.83906 12.0926 6.68437 12.2082C6.58906 12.2785 6.47188 12.3145 6.35469 12.3129C6.20497 12.3115 6.05977 12.2615 5.94087 12.1705C5.82198 12.0795 5.73581 11.9524 5.69531 11.8082L4.14062 6.1754V1.6879H10.6313C10.7874 1.7579 10.9201 1.87152 11.0132 2.01511C11.1063 2.15869 11.156 2.32613 11.1562 2.49728C11.1562 2.64884 11.1203 2.79259 11.0484 2.92384L10.8313 3.32072L11.1734 3.61759C11.2698 3.70101 11.347 3.8042 11.3998 3.92014C11.4527 4.03608 11.4799 4.16205 11.4797 4.28947C11.4797 4.44103 11.4437 4.58478 11.3719 4.71603L11.1547 5.1129L11.4969 5.40978C11.5932 5.4932 11.6704 5.59639 11.7232 5.71233C11.7761 5.82827 11.8033 5.95424 11.8031 6.08165C11.8031 6.23322 11.7672 6.37697 11.6953 6.50822L11.4766 6.90665L11.8188 7.20353C11.9151 7.28695 11.9923 7.39014 12.0451 7.50608C12.098 7.62202 12.1252 7.74799 12.125 7.8754C12.125 8.17384 11.9531 8.46134 11.675 8.63165Z" fill="#6B6B6A"/>
</svg>
