<svg width="20" height="20" viewBox="0 0 20 20" fill="none" xmlns="http://www.w3.org/2000/svg">
<path d="M12.3281 14.3406C12.0026 14.0151 12.0026 13.4875 12.3281 13.162C12.6535 12.8366 13.1811 12.8366 13.5066 13.162L15.5899 15.2454C15.9153 15.5708 15.9153 16.0985 15.5899 16.4239C15.2645 16.7493 14.7368 16.7493 14.4114 16.4239L12.3281 14.3406Z" fill="#6B6B6A"/>
<path d="M9.58333 13.75C11.8845 13.75 13.75 11.8845 13.75 9.58333C13.75 7.28215 11.8845 5.41667 9.58333 5.41667C7.28215 5.41667 5.41667 7.28215 5.41667 9.58333C5.41667 11.8845 7.28215 13.75 9.58333 13.75ZM9.58333 15.4167C6.36167 15.4167 3.75 12.805 3.75 9.58333C3.75 6.36167 6.36167 3.75 9.58333 3.75C12.805 3.75 15.4167 6.36167 15.4167 9.58333C15.4167 12.805 12.805 15.4167 9.58333 15.4167Z" fill="#6B6B6A"/>
</svg>
