<svg width="13" height="14" viewBox="0 0 13 14" fill="none" xmlns="http://www.w3.org/2000/svg">
<path d="M9.32806 11.3406C9.00263 11.0151 9.00263 10.4875 9.32806 10.162C9.6535 9.83661 10.1811 9.83661 10.5066 10.162L12.5899 12.2454C12.9153 12.5708 12.9153 13.0985 12.5899 13.4239C12.2645 13.7493 11.7368 13.7493 11.4114 13.4239L9.32806 11.3406Z" fill="white"/>
<path d="M6.58333 10.75C8.88452 10.75 10.75 8.88452 10.75 6.58333C10.75 4.28215 8.88452 2.41667 6.58333 2.41667C4.28215 2.41667 2.41667 4.28215 2.41667 6.58333C2.41667 8.88452 4.28215 10.75 6.58333 10.75ZM6.58333 12.4167C3.36167 12.4167 0.75 9.80499 0.75 6.58333C0.75 3.36167 3.36167 0.75 6.58333 0.75C9.80499 0.75 12.4167 3.36167 12.4167 6.58333C12.4167 9.80499 9.80499 12.4167 6.58333 12.4167Z" fill="white"/>
</svg>
