<svg width="14" height="14" viewBox="0 0 14 14" fill="none" xmlns="http://www.w3.org/2000/svg">
<path d="M7 1.125C9.6925 1.125 11.875 3.3075 11.875 6C11.875 8.06 10.4275 10.305 7.57 12.759C7.41111 12.8955 7.20853 12.9705 6.99906 12.9703C6.7896 12.9701 6.58715 12.8948 6.4285 12.758L6.2395 12.594C3.5085 10.204 2.125 8.014 2.125 6C2.125 3.3075 4.3075 1.125 7 1.125ZM7 1.875C5.90598 1.875 4.85677 2.3096 4.08318 3.08318C3.3096 3.85677 2.875 4.90598 2.875 6C2.875 7.751 4.149 9.7685 6.7325 12.0285L6.9185 12.19C6.94118 12.2095 6.97009 12.2202 7 12.2202C7.02991 12.2202 7.05882 12.2095 7.0815 12.19C9.7895 9.864 11.125 7.7925 11.125 6C11.125 5.4583 11.0183 4.9219 10.811 4.42143C10.6037 3.92096 10.2999 3.46623 9.91682 3.08318C9.53377 2.70014 9.07904 2.3963 8.57857 2.189C8.0781 1.9817 7.5417 1.875 7 1.875ZM7 4.125C7.49728 4.125 7.9742 4.32254 8.32583 4.67417C8.67746 5.02581 8.875 5.50272 8.875 6C8.875 6.49728 8.67746 6.97419 8.32583 7.32583C7.9742 7.67746 7.49728 7.875 7 7.875C6.50272 7.875 6.02581 7.67746 5.67417 7.32583C5.32254 6.97419 5.125 6.49728 5.125 6C5.125 5.50272 5.32254 5.02581 5.67417 4.67417C6.02581 4.32254 6.50272 4.125 7 4.125ZM7 4.875C6.70163 4.875 6.41548 4.99353 6.2045 5.2045C5.99353 5.41548 5.875 5.70163 5.875 6C5.875 6.29837 5.99353 6.58452 6.2045 6.7955C6.41548 7.00647 6.70163 7.125 7 7.125C7.29837 7.125 7.58452 7.00647 7.7955 6.7955C8.00647 6.58452 8.125 6.29837 8.125 6C8.125 5.70163 8.00647 5.41548 7.7955 5.2045C7.58452 4.99353 7.29837 4.875 7 4.875Z" fill="#1DA799" stroke="#1DA799" stroke-width="0.5"/>
</svg>
