<svg width="12" height="12" viewBox="0 0 12 12" fill="none" xmlns="http://www.w3.org/2000/svg">
<path d="M10.0832 2.5H8.33317V1.91667C8.33317 1.60725 8.21025 1.3105 7.99146 1.09171C7.77267 0.872916 7.47592 0.75 7.1665 0.75H4.83317C4.52375 0.75 4.22701 0.872916 4.00821 1.09171C3.78942 1.3105 3.6665 1.60725 3.6665 1.91667V2.5H1.9165C1.45238 2.5 1.00726 2.68437 0.679067 3.01256C0.350878 3.34075 0.166504 3.78587 0.166504 4.25V9.5C0.166504 9.96413 0.350878 10.4092 0.679067 10.7374C1.00726 11.0656 1.45238 11.25 1.9165 11.25H10.0832C10.5473 11.25 10.9924 11.0656 11.3206 10.7374C11.6488 10.4092 11.8332 9.96413 11.8332 9.5V4.25C11.8332 3.78587 11.6488 3.34075 11.3206 3.01256C10.9924 2.68437 10.5473 2.5 10.0832 2.5ZM4.83317 1.91667H7.1665V2.5H4.83317V1.91667ZM10.6665 9.5C10.6665 9.65471 10.605 9.80308 10.4957 9.91248C10.3863 10.0219 10.2379 10.0833 10.0832 10.0833H1.9165C1.76179 10.0833 1.61342 10.0219 1.50403 9.91248C1.39463 9.80308 1.33317 9.65471 1.33317 9.5V6.58333H3.6665V7.16667C3.6665 7.32138 3.72796 7.46975 3.83736 7.57915C3.94675 7.68854 4.09513 7.75 4.24984 7.75C4.40455 7.75 4.55292 7.68854 4.66232 7.57915C4.77171 7.46975 4.83317 7.32138 4.83317 7.16667V6.58333H7.1665V7.16667C7.1665 7.32138 7.22796 7.46975 7.33736 7.57915C7.44675 7.68854 7.59513 7.75 7.74984 7.75C7.90455 7.75 8.05292 7.68854 8.16232 7.57915C8.27171 7.46975 8.33317 7.32138 8.33317 7.16667V6.58333H10.6665V9.5ZM10.6665 5.41667H1.33317V4.25C1.33317 4.09529 1.39463 3.94692 1.50403 3.83752C1.61342 3.72812 1.76179 3.66667 1.9165 3.66667H10.0832C10.2379 3.66667 10.3863 3.72812 10.4957 3.83752C10.605 3.94692 10.6665 4.09529 10.6665 4.25V5.41667Z" fill="#1DA799"/>
</svg>
