<svg width="14" height="14" viewBox="0 0 14 14" fill="none" xmlns="http://www.w3.org/2000/svg">
<path d="M9.3335 7H10.5002V9.33333H9.3335V7Z" fill="#1DA799"/>
<path d="M11.6665 4.08333V2.91667C11.6665 2.27325 11.1433 1.75 10.4998 1.75H2.9165C1.95167 1.75 1.1665 2.53517 1.1665 3.5V10.5C1.1665 11.7839 2.213 12.25 2.9165 12.25H11.6665C12.3099 12.25 12.8332 11.7267 12.8332 11.0833V5.25C12.8332 4.60658 12.3099 4.08333 11.6665 4.08333ZM2.9165 2.91667H10.4998V4.08333H2.9165C2.76631 4.07661 2.62449 4.01222 2.52058 3.90356C2.41667 3.7949 2.35868 3.65035 2.35868 3.5C2.35868 3.34965 2.41667 3.2051 2.52058 3.09644C2.62449 2.98778 2.76631 2.92339 2.9165 2.91667ZM11.6665 11.0833H2.9235C2.654 11.0763 2.33317 10.9696 2.33317 10.5V5.14208C2.51634 5.208 2.71059 5.25 2.9165 5.25H11.6665V11.0833Z" fill="#1DA799"/>
</svg>
