<svg width="14" height="16" viewBox="0 0 14 16" fill="none" xmlns="http://www.w3.org/2000/svg">
<path d="M8 8.66602H9V10.546L10.6267 11.486L10.1267 12.3527L8 11.126V8.66602ZM10.6667 5.33268H1.33333V12.666H4.44667C4.16 12.0593 4 11.3793 4 10.666C4 9.42834 4.49167 8.24135 5.36684 7.36618C6.242 6.49101 7.42899 5.99935 8.66667 5.99935C9.38 5.99935 10.06 6.15935 10.6667 6.44602V5.33268ZM1.33333 13.9993C0.979711 13.9993 0.640573 13.8589 0.390524 13.6088C0.140476 13.3588 0 13.0196 0 12.666V3.33268C0 2.59268 0.593333 1.99935 1.33333 1.99935H2V0.666016H3.33333V1.99935H8.66667V0.666016H10V1.99935H10.6667C11.0203 1.99935 11.3594 2.13982 11.6095 2.38987C11.8595 2.63992 12 2.97906 12 3.33268V7.39935C12.8267 8.23935 13.3333 9.39268 13.3333 10.666C13.3333 11.9037 12.8417 13.0907 11.9665 13.9658C11.0913 14.841 9.90434 15.3327 8.66667 15.3327C7.39333 15.3327 6.24 14.826 5.4 13.9993H1.33333ZM8.66667 7.43268C7.80913 7.43268 6.98672 7.77334 6.38035 8.3797C5.77399 8.98607 5.43333 9.80848 5.43333 10.666C5.43333 12.4527 6.88 13.8993 8.66667 13.8993C9.09127 13.8993 9.51172 13.8157 9.90401 13.6532C10.2963 13.4907 10.6527 13.2526 10.953 12.9523C11.2532 12.6521 11.4914 12.2956 11.6539 11.9034C11.8164 11.5111 11.9 11.0906 11.9 10.666C11.9 8.87935 10.4533 7.43268 8.66667 7.43268Z" fill="#1DA799"/>
</svg>
